<svg width="66" height="24" viewBox="0 0 66 24" fill="none" xmlns="http://www.w3.org/2000/svg">
<path d="M38.7351 11.2862C38.7351 12.6919 38.6891 13.3228 38.3362 13.9711C37.6573 15.3288 35.8316 16.5927 32.6001 16.5927C30.0245 16.5927 28.2448 15.8908 27.261 14.556C26.653 13.6661 26.4651 13.2691 26.4651 11.0905V0.122731C26.4651 0.0901784 26.478 0.0589594 26.501 0.0359416C26.5241 0.0129237 26.5553 -7.62939e-06 26.5878 -7.62939e-06L30.5557 -7.62939e-06C30.5883 -7.62939e-06 30.6195 0.0129237 30.6425 0.0359416C30.6655 0.0589594 30.6785 0.0901784 30.6785 0.122731V10.6552C30.6785 12.153 31.1464 13.1598 32.6212 13.1598C34.096 13.1598 34.539 12.316 34.539 10.7242V0.122731C34.539 0.0901784 34.5519 0.0589594 34.5749 0.0359416C34.5979 0.0129237 34.6292 -7.62939e-06 34.6617 -7.62939e-06L38.6066 -7.62939e-06C38.6392 -7.62939e-06 38.6704 0.0129237 38.6934 0.0359416C38.7164 0.0589594 38.7293 0.0901784 38.7293 0.122731L38.7351 11.2862Z" fill="white"/>
<path d="M47.8424 16.1976V9.58892C47.8424 9.55637 47.8294 9.52515 47.8064 9.50213C47.7834 9.47912 47.7522 9.46618 47.7196 9.46618H44.6186C44.586 9.46618 44.5548 9.47912 44.5318 9.50213C44.5088 9.52515 44.4959 9.55637 44.4959 9.58892V16.1976C44.4959 16.2302 44.4829 16.2614 44.4599 16.2844C44.4369 16.3074 44.4057 16.3203 44.3731 16.3203H40.4263C40.3938 16.3203 40.3626 16.3074 40.3395 16.2844C40.3165 16.2614 40.3036 16.2302 40.3036 16.1976V0.122738C40.3036 0.090186 40.3165 0.0589671 40.3395 0.0359492C40.3626 0.0129313 40.3938 0 40.4263 0L44.3712 0C44.4038 0 44.435 0.0129313 44.458 0.0359492C44.481 0.0589671 44.4939 0.090186 44.4939 0.122738V5.87609C44.4939 5.90864 44.5069 5.93986 44.5299 5.96288C44.5529 5.9859 44.5841 5.99883 44.6167 5.99883H47.7177C47.7503 5.99883 47.7815 5.9859 47.8045 5.96288C47.8275 5.93986 47.8405 5.90864 47.8405 5.87609V0.122738C47.8405 0.090186 47.8534 0.0589671 47.8764 0.0359492C47.8994 0.0129313 47.9306 0 47.9632 0C47.9645 0 47.9658 0 47.967 0H51.9119C51.9445 0 51.9757 0.0129313 51.9987 0.0359492C52.0217 0.0589671 52.0346 0.090186 52.0346 0.122738V16.1976C52.0346 16.2302 52.0217 16.2614 51.9987 16.2844C51.9757 16.3074 51.9445 16.3203 51.9119 16.3203H47.967C47.9509 16.3206 47.9349 16.3177 47.9199 16.3117C47.9049 16.3058 47.8913 16.297 47.8797 16.2858C47.8681 16.2745 47.8589 16.2611 47.8525 16.2464C47.8461 16.2316 47.8426 16.2156 47.8424 16.1995V16.1976Z" fill="white"/>
<path d="M61.5943 16.3203C61.5717 16.3203 61.5495 16.314 61.5302 16.3022C61.5109 16.2903 61.4953 16.2734 61.485 16.2532L58.639 10.6533C58.151 9.65924 57.7288 8.63421 57.3752 7.58482C57.5443 8.9596 57.6225 10.3441 57.6091 11.7291V16.1976C57.6091 16.2301 57.5962 16.2614 57.5732 16.2844C57.5502 16.3074 57.519 16.3203 57.4864 16.3203H53.7505C53.718 16.3203 53.6868 16.3074 53.6638 16.2844C53.6407 16.2614 53.6278 16.2301 53.6278 16.1976V0.122719C53.6278 0.0901664 53.6407 0.0589474 53.6638 0.0359296C53.6868 0.0129117 53.718 -1.96346e-05 53.7505 -1.96346e-05H57.5861C57.6086 -0.000183008 57.6306 0.00580918 57.6499 0.0173054C57.6692 0.0288015 57.6849 0.0453617 57.6954 0.065185L60.6354 5.59608C61.16 6.60137 61.6137 7.64206 61.9932 8.71056C61.8762 7.75166 61.8532 6.13497 61.8532 5.06677V0.122719C61.8532 0.0901664 61.8661 0.0589474 61.8892 0.0359296C61.9122 0.0129117 61.9434 -1.96346e-05 61.976 -1.96346e-05H65.7099C65.7424 -1.96346e-05 65.7737 0.0129117 65.7967 0.0359296C65.8197 0.0589474 65.8326 0.0901664 65.8326 0.122719V16.1976C65.8326 16.2301 65.8197 16.2614 65.7967 16.2844C65.7737 16.3074 65.7424 16.3203 65.7099 16.3203H61.5943Z" fill="white"/>
<path d="M2.83449 10.3563C3.26215 9.49905 3.6016 8.73961 4.01009 8.02811C4.40574 7.37007 4.84192 6.73726 5.3161 6.13334C5.77253 5.53691 6.37855 5.43143 7.08621 5.69033C8.58017 6.2369 8.98099 6.77772 9.004 8.36564V8.95248C9.45084 8.21989 9.78837 7.59086 10.1969 7.01169C10.4143 6.69797 10.7056 6.44259 11.0451 6.26805C11.3845 6.09352 11.7617 6.0052 12.1434 6.01088C12.5251 6.01657 12.8995 6.11608 13.2336 6.30065C13.5677 6.48522 13.8513 6.74917 14.0593 7.06922C14.1996 7.29186 14.2772 7.5483 14.2837 7.8114C14.3412 9.92097 14.2837 11.8771 14.4352 13.9809C14.4803 14.6503 14.6091 15.3113 14.8187 15.9486C14.951 16.3321 13.8905 16.5949 13.2845 16.685C12.8089 16.756 12.4944 16.3858 12.433 15.9351C12.3627 15.3272 12.3294 14.7156 12.3333 14.1037C12.3141 12.5445 12.3333 10.9853 12.2892 9.4281C12.2757 8.97742 12.2988 8.51523 12.1357 8.08565C12.0941 7.94582 12.0124 7.82127 11.9007 7.7274C11.789 7.63354 11.6523 7.57448 11.5074 7.55754C11.3625 7.54061 11.2158 7.56653 11.0854 7.6321C10.9551 7.69767 10.8469 7.80002 10.7741 7.92647C10.3981 8.46603 10.1035 9.05792 9.8996 9.68316C9.28208 11.6585 8.77386 13.6626 8.95797 15.7645C8.99825 16.2171 8.79496 16.405 8.38264 16.4798C7.31635 16.6716 6.86759 16.3034 6.84841 15.2332C6.819 13.3423 6.78065 11.4507 6.73334 9.5585C6.73497 9.16261 6.68926 8.76794 6.59718 8.3829C6.53006 8.13359 6.34787 7.80757 6.1465 7.73853C5.94513 7.66949 5.58459 7.85743 5.435 8.04345C5.06959 8.48164 4.76213 8.96506 4.52022 9.48179C3.68982 11.3689 2.83832 13.2522 2.57558 15.3349C2.46052 16.2477 1.56683 16.7118 0.728758 16.3072C0.511265 16.1706 0.356786 15.9534 0.299174 15.7031C0.235913 15.3308 0.216603 14.9523 0.241641 14.5754C0.260819 12.6576 0.151505 12.1705 0.130409 10.2585C0.133803 9.64939 0.0902036 9.04092 0 8.43852C0.768779 8.00933 1.65287 7.83225 2.52764 7.93222C3.03394 7.9725 3.04161 8.37907 3.00133 8.72427C2.91618 9.26485 2.86048 9.80967 2.83449 10.3563Z" fill="white"/>
<path d="M17.8605 21.9647C17.6246 22.3215 17.7991 22.7625 18.083 23.0675C18.3143 23.326 18.588 23.5433 18.8923 23.7099C20.0122 24.3025 21.3566 23.9458 22.3213 23.0234C22.8642 22.4967 23.3286 21.8948 23.7001 21.236C24.4673 19.7018 24.4673 17.0686 24.45 14.8728C24.4826 11.3306 24.3886 9.52216 24.3349 5.98001C24.3138 5.69618 24.1566 5.47372 23.9188 5.5255C23.3338 5.65015 23.2514 5.60413 22.6799 5.76906C22.2292 5.89755 22.1889 6.32905 22.2235 6.7548C22.3447 7.84739 22.3736 8.94827 22.3098 10.0457C22.1678 11.7084 21.6788 13.1679 20.4553 14.3166C19.5251 15.1911 18.3668 14.9341 18.0964 13.7413C17.521 11.1638 17.8758 8.53067 18.9862 5.80933C18.9923 5.79629 18.995 5.78195 18.9941 5.76759C18.9933 5.75324 18.9888 5.73933 18.9812 5.72714C18.9736 5.71494 18.963 5.70485 18.9505 5.69777C18.938 5.69068 18.9239 5.68684 18.9095 5.68659C18.5401 5.66805 18.1698 5.67318 17.801 5.70193C16.9975 5.77097 16.5046 5.80741 16.4586 6.74904C16.3838 8.45971 16.075 10.5654 16.1057 12.2723C16.1249 13.3232 16.2304 14.4163 16.6101 15.404C17.1682 16.85 18.7197 17.0744 20.0621 16.4952C20.8758 16.0787 21.5716 15.464 22.0854 14.7079C22.2313 14.5137 22.3639 14.31 22.4824 14.098C22.4824 15.7837 22.6377 16.7196 22.5763 17.6919C22.4804 19.8015 22.1199 20.4516 21.6443 21.1228C21.2128 21.7308 20.5435 22.2256 20.018 22.1412C19.6344 22.0817 19.2049 21.6253 18.8175 21.2686C18.6736 21.1343 18.5758 20.9694 18.3131 21.2686L17.8605 21.9647Z" fill="white"/>
</svg>
